<svg width="24" height="24" viewBox="0 0 24 24" fill="none" xmlns="http://www.w3.org/2000/svg">
<path d="M5 21C4.45 21 3.97933 20.8043 3.588 20.413C3.19667 20.0217 3.00067 19.5507 3 19V5C3 4.45 3.196 3.97933 3.588 3.588C3.98 3.19667 4.45067 3.00067 5 3H19C19.55 3 20.021 3.196 20.413 3.588C20.805 3.98 21.0007 4.45067 21 5H13C11.8167 5 10.8543 5.371 10.113 6.113C9.37167 6.855 9.00067 7.81733 9 9V15C9 16.1833 9.371 17.146 10.113 17.888C10.855 18.63 11.8173 19.0007 13 19H21C21 19.55 20.8043 20.021 20.413 20.413C20.0217 20.805 19.5507 21.0007 19 21H5ZM13 17C12.45 17 11.9793 16.8043 11.588 16.413C11.1967 16.0217 11.0007 15.5507 11 15V9C11 8.45 11.196 7.97933 11.588 7.588C11.98 7.19667 12.4507 7.00067 13 7H20C20.55 7 21.021 7.196 21.413 7.588C21.805 7.98 22.0007 8.45067 22 9V15C22 15.55 21.8043 16.021 21.413 16.413C21.0217 16.805 20.5507 17.0007 20 17H13ZM17.075 13.075C17.3583 12.7917 17.5 12.4333 17.5 12C17.5 11.5667 17.3583 11.2083 17.075 10.925C16.7917 10.6417 16.4333 10.5 16 10.5C15.5667 10.5 15.2083 10.6417 14.925 10.925C14.6417 11.2083 14.5 11.5667 14.5 12C14.5 12.4333 14.6417 12.7917 14.925 13.075C15.2083 13.3583 15.5667 13.5 16 13.5C16.4333 13.5 16.7917 13.3583 17.075 13.075Z" fill="#003B8B"/>
</svg>
