<svg width="24" height="24" viewBox="0 0 24 24" fill="none" xmlns="http://www.w3.org/2000/svg">
<path d="M11.1 11.9L8.40002 19.35C8.38336 19.4 8.34169 19.4583 8.27502 19.525L7.47502 20.3C7.32502 20.45 7.15436 20.4877 6.96302 20.413C6.77169 20.3383 6.65902 20.2007 6.62502 20L6.52502 18.925L6.55002 18.7L9.35002 10.95C9.60002 11.1833 9.87102 11.3793 10.163 11.538C10.455 11.6967 10.7674 11.8173 11.1 11.9ZM9.87502 10.125C9.29169 9.54167 9.00002 8.83333 9.00002 8C9.00002 7.35 9.18769 6.771 9.56302 6.263C9.93836 5.755 10.4174 5.40067 11 5.2V4C11 3.71667 11.096 3.47933 11.288 3.288C11.48 3.09667 11.7174 3.00067 12 3C12.2827 2.99933 12.5204 3.09533 12.713 3.288C12.9057 3.48067 13.0014 3.718 13 4V5.2C13.5834 5.4 14.0627 5.75433 14.438 6.263C14.8134 6.77167 15.0007 7.35067 15 8C15 8.83333 14.7084 9.54167 14.125 10.125C13.5417 10.7083 12.8334 11 12 11C11.1667 11 10.4584 10.7083 9.87502 10.125ZM12.713 8.713C12.9044 8.521 13 8.28333 13 8C13 7.71667 12.904 7.47933 12.712 7.288C12.52 7.09667 12.2827 7.00067 12 7C11.7174 6.99933 11.48 7.09533 11.288 7.288C11.096 7.48067 11 7.718 11 8C11 8.282 11.096 8.51967 11.288 8.713C11.48 8.90633 11.7174 9.002 12 9C12.2827 8.998 12.5204 8.902 12.713 8.712M12.9 11.9C13.2334 11.8167 13.546 11.6957 13.838 11.537C14.13 11.3783 14.4007 11.1827 14.65 10.95L17.45 18.7C17.4667 18.75 17.475 18.825 17.475 18.925L17.375 20C17.3417 20.2 17.229 20.3377 17.037 20.413C16.845 20.4883 16.6744 20.4507 16.525 20.3L15.725 19.525L15.6 19.35L12.9 11.9Z" fill="#694BB0"/>
</svg>
