<svg width="24" height="24" viewBox="0 0 24 24" fill="none" xmlns="http://www.w3.org/2000/svg">
<path d="M3.97501 21V18H7.07501L4.52501 9.65C4.07501 9.4 3.70434 9.03333 3.41301 8.55C3.12167 8.06667 2.97567 7.55 2.97501 7C2.97501 6.16667 3.26667 5.45833 3.85001 4.875C4.43334 4.29167 5.14167 4 5.97501 4C6.62501 4 7.20434 4.18767 7.71301 4.563C8.22167 4.93833 8.57567 5.41733 8.77501 6H11.975V5C11.975 4.71667 12.071 4.47933 12.263 4.288C12.455 4.09667 12.6923 4.00067 12.975 4C13.125 4 13.271 4.03333 13.413 4.1C13.555 4.16667 13.6757 4.26667 13.775 4.4L15.475 2.8C15.625 2.65 15.8043 2.554 16.013 2.512C16.2217 2.47 16.4257 2.49933 16.625 2.6L20.525 4.4C20.725 4.5 20.8627 4.646 20.938 4.838C21.0133 5.03 21.009 5.21733 20.925 5.4C20.825 5.6 20.6793 5.72933 20.488 5.788C20.2967 5.84667 20.109 5.834 19.925 5.75L16.325 4.1L13.975 6.3V7.7L16.325 9.85L19.925 8.2C20.1083 8.11667 20.3 8.10833 20.5 8.175C20.7 8.24167 20.8417 8.36667 20.925 8.55C21.025 8.75 21.0333 8.94167 20.95 9.125C20.8667 9.30833 20.725 9.45 20.525 9.55L16.625 11.4C16.425 11.5 16.221 11.529 16.013 11.487C15.805 11.445 15.6257 11.3493 15.475 11.2L13.775 9.6C13.675 9.7 13.5543 9.79167 13.413 9.875C13.2717 9.95833 13.1257 10 12.975 10C12.6917 10 12.4543 9.90433 12.263 9.713C12.0717 9.52167 11.9757 9.284 11.975 9V8H8.77501C8.72501 8.13333 8.67101 8.25833 8.61301 8.375C8.55501 8.49167 8.47567 8.61667 8.37501 8.75L13.375 18H16.975V21H3.97501ZM6.68801 7.712C6.87934 7.52067 6.97501 7.28333 6.97501 7C6.97501 6.71667 6.87934 6.47933 6.68801 6.288C6.49667 6.09667 6.25901 6.00067 5.97501 6C5.69101 5.99933 5.45367 6.09533 5.26301 6.288C5.07234 6.48067 4.97634 6.718 4.97501 7C4.97367 7.282 5.06967 7.51967 5.26301 7.713C5.45634 7.90633 5.69367 8.002 5.97501 8C6.25634 7.998 6.49401 7.902 6.68801 7.712ZM9.12501 18H11.075L6.77501 10H6.67501L9.12501 18Z" fill="white"/>
</svg>
