<svg width="24" height="24" viewBox="0 0 24 24" fill="none" xmlns="http://www.w3.org/2000/svg">
<path d="M3.875 19.125C3.29167 18.5417 3 17.8333 3 17H1V6C1 5.45 1.196 4.97933 1.588 4.588C1.98 4.19667 2.45067 4.00067 3 4H17V8H20L23 12V17H21C21 17.8333 20.7083 18.5417 20.125 19.125C19.5417 19.7083 18.8333 20 18 20C17.1667 20 16.4583 19.7083 15.875 19.125C15.2917 18.5417 15 17.8333 15 17H9C9 17.8333 8.70833 18.5417 8.125 19.125C7.54167 19.7083 6.83333 20 6 20C5.16667 20 4.45833 19.7083 3.875 19.125ZM6.713 17.713C6.90433 17.521 7 17.2833 7 17C7 16.7167 6.904 16.4793 6.712 16.288C6.52 16.0967 6.28267 16.0007 6 16C5.71733 15.9993 5.48 16.0953 5.288 16.288C5.096 16.4807 5 16.718 5 17C5 17.282 5.096 17.5197 5.288 17.713C5.48 17.9063 5.71733 18.002 6 18C6.28267 17.998 6.52033 17.903 6.713 17.713ZM18.713 17.712C18.9043 17.5213 19 17.284 19 17C19 16.716 18.904 16.4787 18.712 16.288C18.52 16.0973 18.2827 16.0013 18 16C17.7173 15.9987 17.48 16.0947 17.288 16.288C17.096 16.4813 17 16.7187 17 17C17 17.2813 17.096 17.519 17.288 17.713C17.48 17.907 17.7173 18.0027 18 18C18.2827 17.9973 18.5203 17.9013 18.713 17.712ZM17 13H21.25L19 10H17V13Z" fill="#003B8B"/>
</svg>
