<svg width="24" height="24" viewBox="0 0 24 24" fill="none" xmlns="http://www.w3.org/2000/svg">
<path d="M6.375 14.625L3.375 13.875C3.375 13.875 3.375 11.625 4.125 9.375C4.875 7.125 10.125 7.125 10.125 7.125M6.375 14.625L9.375 17.625M6.375 14.625C6.375 14.625 9.375 7.125 13.125 4.875C16.875 2.625 21.375 2.625 21.375 2.625C21.375 2.625 21.375 7.125 19.125 10.875C16.875 14.625 9.375 17.625 9.375 17.625M9.375 17.625L10.125 20.625C10.125 20.625 12.375 20.625 14.625 19.875C16.875 19.125 16.875 13.875 16.875 13.875" stroke="white" stroke-width="1.5" stroke-linecap="round" stroke-linejoin="round"/>
<path d="M2.625 21.375L5.625 19.875L4.125 18.375L2.625 21.375Z" fill="white" stroke="white" stroke-width="1.5" stroke-linecap="round" stroke-linejoin="round"/>
<path d="M15.375 9.375C15.7892 9.375 16.125 9.03921 16.125 8.625C16.125 8.21079 15.7892 7.875 15.375 7.875C14.9608 7.875 14.625 8.21079 14.625 8.625C14.625 9.03921 14.9608 9.375 15.375 9.375Z" fill="white" stroke="white" stroke-width="1.5" stroke-linecap="round" stroke-linejoin="round"/>
</svg>
