<svg width="24" height="24" viewBox="0 0 24 24" fill="none" xmlns="http://www.w3.org/2000/svg">
<path d="M12 21C10.75 21 9.57933 20.7627 8.488 20.288C7.39667 19.8133 6.44667 19.1717 5.638 18.363C4.82933 17.5543 4.18767 16.6043 3.713 15.513C3.23833 14.4217 3.00067 13.2507 3 12C2.99933 10.7493 3.237 9.57867 3.713 8.488C4.189 7.39733 4.83033 6.44733 5.637 5.638C6.44367 4.82867 7.39367 4.187 8.487 3.713C9.58034 3.239 10.7513 3.00133 12 3C13.3667 3 14.6627 3.29167 15.888 3.875C17.1133 4.45833 18.1507 5.28333 19 6.35V5C19 4.71667 19.096 4.47933 19.288 4.288C19.48 4.09667 19.7173 4.00067 20 4C20.2827 3.99933 20.5203 4.09533 20.713 4.288C20.9057 4.48067 21.0013 4.718 21 5V9C21 9.28333 20.904 9.521 20.712 9.713C20.52 9.905 20.2827 10.0007 20 10H16C15.7167 10 15.4793 9.904 15.288 9.712C15.0967 9.52 15.0007 9.28267 15 9C14.9993 8.71733 15.0953 8.48 15.288 8.288C15.4807 8.096 15.718 8 16 8H17.75C17.0667 7.06667 16.225 6.33333 15.225 5.8C14.225 5.26667 13.15 5 12 5C10.05 5 8.396 5.67933 7.038 7.038C5.68 8.39667 5.00067 10.0507 5 12C4.99933 13.9493 5.67867 15.6037 7.038 16.963C8.39733 18.3223 10.0513 19.0013 12 19C13.5833 19 15 18.525 16.25 17.575C17.5 16.625 18.325 15.4 18.725 13.9C18.8083 13.6333 18.9583 13.4333 19.175 13.3C19.3917 13.1667 19.6333 13.1167 19.9 13.15C20.1833 13.1833 20.4083 13.304 20.575 13.512C20.7417 13.72 20.7917 13.9493 20.725 14.2C20.2417 16.1833 19.1917 17.8127 17.575 19.088C15.9583 20.3633 14.1 21.0007 12 21ZM13 11.6L15.5 14.1C15.6833 14.2833 15.775 14.5167 15.775 14.8C15.775 15.0833 15.6833 15.3167 15.5 15.5C15.3167 15.6833 15.0833 15.775 14.8 15.775C14.5167 15.775 14.2833 15.6833 14.1 15.5L11.3 12.7C11.2 12.6 11.125 12.4877 11.075 12.363C11.025 12.2383 11 12.109 11 11.975V8C11 7.71667 11.096 7.47933 11.288 7.288C11.48 7.09667 11.7173 7.00067 12 7C12.2827 6.99933 12.5203 7.09533 12.713 7.288C12.9057 7.48067 13.0013 7.718 13 8V11.6Z" fill="#003B8B"/>
</svg>
