<svg width="24" height="24" viewBox="0 0 24 24" fill="none" xmlns="http://www.w3.org/2000/svg">
<path d="M3.875 22.125C3.29167 21.5417 3 20.8333 3 20C3 19.1667 3.29167 18.4583 3.875 17.875C4.45833 17.2917 5.16667 17 6 17C6.23333 17 6.45 17.025 6.65 17.075C6.85 17.125 7.04167 17.1917 7.225 17.275L8.65 15.5C8.18333 14.9833 7.85833 14.4 7.675 13.75C7.49167 13.1 7.45 12.45 7.55 11.8L5.525 11.125C5.24167 11.5417 4.88333 11.875 4.45 12.125C4.01667 12.375 3.53333 12.5 3 12.5C2.16667 12.5 1.45833 12.2083 0.875 11.625C0.291667 11.0417 0 10.3333 0 9.5C0 8.66667 0.291667 7.95833 0.875 7.375C1.45833 6.79167 2.16667 6.5 3 6.5C3.83333 6.5 4.54167 6.79167 5.125 7.375C5.70833 7.95833 6 8.66667 6 9.5V9.7L8.025 10.4C8.35833 9.8 8.80433 9.29167 9.363 8.875C9.92167 8.45833 10.5507 8.19167 11.25 8.075V5.9C10.6 5.71667 10.0627 5.36233 9.638 4.837C9.21333 4.31167 9.00067 3.69933 9 3C9 2.16667 9.29167 1.45833 9.875 0.875C10.4583 0.291667 11.1667 0 12 0C12.8333 0 13.5417 0.291667 14.125 0.875C14.7083 1.45833 15 2.16667 15 3C15 3.7 14.7833 4.31267 14.35 4.838C13.9167 5.36333 13.3833 5.71733 12.75 5.9V8.075C13.45 8.19167 14.0793 8.45833 14.638 8.875C15.1967 9.29167 15.6423 9.8 15.975 10.4L18 9.7V9.5C18 8.66667 18.2917 7.95833 18.875 7.375C19.4583 6.79167 20.1667 6.5 21 6.5C21.8333 6.5 22.5417 6.79167 23.125 7.375C23.7083 7.95833 24 8.66667 24 9.5C24 10.3333 23.7083 11.0417 23.125 11.625C22.5417 12.2083 21.8333 12.5 21 12.5C20.4667 12.5 19.979 12.375 19.537 12.125C19.095 11.875 18.741 11.5417 18.475 11.125L16.45 11.8C16.55 12.45 16.5083 13.096 16.325 13.738C16.1417 14.38 15.8167 14.9673 15.35 15.5L16.775 17.25C16.9583 17.1667 17.15 17.1043 17.35 17.063C17.55 17.0217 17.7667 17.0007 18 17C18.8333 17 19.5417 17.2917 20.125 17.875C20.7083 18.4583 21 19.1667 21 20C21 20.8333 20.7083 21.5417 20.125 22.125C19.5417 22.7083 18.8333 23 18 23C17.1667 23 16.4583 22.7083 15.875 22.125C15.2917 21.5417 15 20.8333 15 20C15 19.6667 15.0543 19.346 15.163 19.038C15.2717 18.73 15.4173 18.4507 15.6 18.2L14.175 16.425C13.4917 16.8083 12.7627 17 11.988 17C11.2133 17 10.484 16.8083 9.8 16.425L8.4 18.2C8.58333 18.45 8.72933 18.7293 8.838 19.038C8.94667 19.3467 9.00067 19.6673 9 20C9 20.8333 8.70833 21.5417 8.125 22.125C7.54167 22.7083 6.83333 23 6 23C5.16667 23 4.45833 22.7083 3.875 22.125ZM3 10.5C3.28333 10.5 3.521 10.404 3.713 10.212C3.905 10.02 4.00067 9.78267 4 9.5C3.99933 9.21733 3.90333 8.98 3.712 8.788C3.52067 8.596 3.28333 8.5 3 8.5C2.71667 8.5 2.47933 8.596 2.288 8.788C2.09667 8.98 2.00067 9.21733 2 9.5C1.99933 9.78267 2.09533 10.0203 2.288 10.213C2.48067 10.4057 2.718 10.5013 3 10.5ZM6.713 20.713C6.90433 20.521 7 20.2833 7 20C7 19.7167 6.904 19.4793 6.712 19.288C6.52 19.0967 6.28267 19.0007 6 19C5.71733 18.9993 5.48 19.0953 5.288 19.288C5.096 19.4807 5 19.718 5 20C5 20.282 5.096 20.5197 5.288 20.713C5.48 20.9063 5.71733 21.002 6 21C6.28267 20.998 6.52033 20.903 6.713 20.713ZM12.713 3.712C12.9043 3.52067 13 3.28333 13 3C13 2.71667 12.904 2.47933 12.712 2.288C12.52 2.09667 12.2827 2.00067 12 2C11.7173 1.99933 11.48 2.09533 11.288 2.288C11.096 2.48067 11 2.718 11 3C11 3.282 11.096 3.51967 11.288 3.713C11.48 3.90633 11.7173 4.002 12 4C12.2827 3.998 12.5203 3.902 12.713 3.712ZM12 15C12.7 15 13.2917 14.7583 13.775 14.275C14.2583 13.7917 14.5 13.2 14.5 12.5C14.5 11.8 14.2583 11.2083 13.775 10.725C13.2917 10.2417 12.7 10 12 10C11.3 10 10.7083 10.2417 10.225 10.725C9.74167 11.2083 9.5 11.8 9.5 12.5C9.5 13.2 9.74167 13.7917 10.225 14.275C10.7083 14.7583 11.3 15 12 15ZM18.713 20.713C18.9043 20.521 19 20.2833 19 20C19 19.7167 18.904 19.4793 18.712 19.288C18.52 19.0967 18.2827 19.0007 18 19C17.7173 18.9993 17.48 19.0953 17.288 19.288C17.096 19.4807 17 19.718 17 20C17 20.282 17.096 20.5197 17.288 20.713C17.48 20.9063 17.7173 21.002 18 21C18.2827 20.998 18.5203 20.903 18.713 20.713ZM21.713 10.212C21.9043 10.0207 22 9.78333 22 9.5C22 9.21667 21.904 8.97933 21.712 8.788C21.52 8.59667 21.2827 8.50067 21 8.5C20.7173 8.49933 20.48 8.59533 20.288 8.788C20.096 8.98067 20 9.218 20 9.5C20 9.782 20.096 10.0197 20.288 10.213C20.48 10.4063 20.7173 10.502 21 10.5C21.2827 10.498 21.5203 10.402 21.713 10.212Z" fill="#003B8B"/>
</svg>
