<svg width="24" height="24" viewBox="0 0 24 24" fill="none" xmlns="http://www.w3.org/2000/svg">
<path d="M4.588 19.413C4.196 19.021 4 18.55 4 18C4 17.45 4.196 16.9793 4.588 16.588C4.98 16.1967 5.45067 16.0007 6 16C6.54933 15.9993 7.02033 16.1953 7.413 16.588C7.80567 16.9807 8.00133 17.4513 8 18C7.99867 18.5487 7.803 19.0197 7.413 19.413C7.023 19.8063 6.552 20.002 6 20C5.448 19.998 4.97733 19.8023 4.588 19.413ZM4.588 13.413C4.196 13.021 4 12.55 4 12C4 11.45 4.196 10.9793 4.588 10.588C4.98 10.1967 5.45067 10.0007 6 10C6.54933 9.99933 7.02033 10.1953 7.413 10.588C7.80567 10.9807 8.00133 11.4513 8 12C7.99867 12.5487 7.803 13.0197 7.413 13.413C7.023 13.8063 6.552 14.002 6 14C5.448 13.998 4.97733 13.8023 4.588 13.413ZM4.588 7.413C4.196 7.021 4 6.55 4 6C4 5.45 4.196 4.97933 4.588 4.588C4.98 4.19667 5.45067 4.00067 6 4C6.54933 3.99933 7.02033 4.19533 7.413 4.588C7.80567 4.98067 8.00133 5.45133 8 6C7.99867 6.54867 7.803 7.01967 7.413 7.413C7.023 7.80633 6.552 8.002 6 8C5.448 7.998 4.97733 7.80233 4.588 7.413ZM10.588 7.413C10.196 7.021 10 6.55 10 6C10 5.45 10.196 4.97933 10.588 4.588C10.98 4.19667 11.4507 4.00067 12 4C12.5493 3.99933 13.0203 4.19533 13.413 4.588C13.8057 4.98067 14.0013 5.45133 14 6C13.9987 6.54867 13.803 7.01967 13.413 7.413C13.023 7.80633 12.552 8.002 12 8C11.448 7.998 10.9773 7.80233 10.588 7.413ZM16.588 7.413C16.196 7.021 16 6.55 16 6C16 5.45 16.196 4.97933 16.588 4.588C16.98 4.19667 17.4507 4.00067 18 4C18.5493 3.99933 19.0203 4.19533 19.413 4.588C19.8057 4.98067 20.0013 5.45133 20 6C19.9987 6.54867 19.803 7.01967 19.413 7.413C19.023 7.80633 18.552 8.002 18 8C17.448 7.998 16.9773 7.80233 16.588 7.413ZM10.588 13.413C10.196 13.021 10 12.55 10 12C10 11.45 10.196 10.9793 10.588 10.588C10.98 10.1967 11.4507 10.0007 12 10C12.5493 9.99933 13.0203 10.1953 13.413 10.588C13.8057 10.9807 14.0013 11.4513 14 12C13.9987 12.5487 13.803 13.0197 13.413 13.413C13.023 13.8063 12.552 14.002 12 14C11.448 13.998 10.9773 13.8023 10.588 13.413ZM13 20V16.925L18.525 11.425C18.675 11.275 18.8417 11.1667 19.025 11.1C19.2083 11.0333 19.3917 11 19.575 11C19.775 11 19.9667 11.0377 20.15 11.113C20.3333 11.1883 20.5 11.3007 20.65 11.45L21.575 12.375C21.7083 12.525 21.8127 12.6917 21.888 12.875C21.9633 13.0583 22.0007 13.2417 22 13.425C21.9993 13.6083 21.966 13.796 21.9 13.988C21.834 14.18 21.7257 14.3507 21.575 14.5L16.075 20H13ZM14.5 18.5H15.45L18.475 15.45L18.025 14.975L17.55 14.525L14.5 17.55V18.5ZM18.025 14.975L17.55 14.525L18.475 15.45L18.025 14.975Z" fill="#003B8B" fill-opacity="0.101961"/>
</svg>
