<svg width="24" height="24" viewBox="0 0 24 24" fill="none" xmlns="http://www.w3.org/2000/svg">
<path d="M10 22V17.9L17.35 10.6C17.55 10.4 17.771 10.25 18.013 10.15C18.255 10.05 18.509 10 18.775 10C19.041 10 19.2953 10.05 19.538 10.15C19.7807 10.25 20.0013 10.4 20.2 10.6L21.425 11.85C21.6083 12.05 21.75 12.271 21.85 12.513C21.95 12.755 22 13.0007 22 13.25C22 13.4993 21.946 13.7453 21.838 13.988C21.73 14.2307 21.584 14.4513 21.4 14.65L14.1 22H10ZM12 20H13.25L17.3 15.95L16.675 15.325L16.05 14.7L12 18.75V20ZM10.75 9.25L9.35 7.825L11.175 6H7.825C7.675 6.43333 7.44167 6.80833 7.125 7.125C6.80833 7.44167 6.43333 7.675 6 7.825V16.175C6.58333 16.3917 7.06267 16.7543 7.438 17.263C7.81333 17.7717 8.00067 18.3507 8 19C8 19.8333 7.70833 20.5417 7.125 21.125C6.54167 21.7083 5.83333 22 5 22C4.16667 22 3.45833 21.7083 2.875 21.125C2.29167 20.5417 2 19.8333 2 19C2 18.35 2.18767 17.775 2.563 17.275C2.93833 16.775 3.41733 16.4167 4 16.2V7.825C3.41667 7.60833 2.93767 7.24567 2.563 6.737C2.18833 6.22833 2.00067 5.64933 2 5C2 4.16667 2.29167 3.45833 2.875 2.875C3.45833 2.29167 4.16667 2 5 2C5.65 2 6.22933 2.18767 6.738 2.563C7.24667 2.93833 7.609 3.41733 7.825 4H11.175L9.35 2.175L10.75 0.75L15 5L10.75 9.25ZM21.125 2.875C21.7083 3.45833 22 4.16667 22 5C22 5.83333 21.7083 6.54167 21.125 7.125C20.5417 7.70833 19.8333 8 19 8C18.1667 8 17.4583 7.70833 16.875 7.125C16.2917 6.54167 16 5.83333 16 5C16 4.16667 16.2917 3.45833 16.875 2.875C17.4583 2.29167 18.1667 2 19 2C19.8333 2 20.5417 2.29167 21.125 2.875ZM5 20C5.28333 20 5.521 19.904 5.713 19.712C5.905 19.52 6.00067 19.2827 6 19C5.99933 18.7173 5.90333 18.48 5.712 18.288C5.52067 18.096 5.28333 18 5 18C4.71667 18 4.47933 18.096 4.288 18.288C4.09667 18.48 4.00067 18.7173 4 19C3.99933 19.2827 4.09533 19.5203 4.288 19.713C4.48067 19.9057 4.718 20.0013 5 20ZM5 6C5.28333 6 5.521 5.904 5.713 5.712C5.905 5.52 6.00067 5.28267 6 5C5.99933 4.71733 5.90333 4.48 5.712 4.288C5.52067 4.096 5.28333 4 5 4C4.71667 4 4.47933 4.096 4.288 4.288C4.09667 4.48 4.00067 4.71733 4 5C3.99933 5.28267 4.09533 5.52033 4.288 5.713C4.48067 5.90567 4.718 6.00133 5 6ZM19 6C19.2833 6 19.521 5.904 19.713 5.712C19.905 5.52 20.0007 5.28267 20 5C19.9993 4.71733 19.9033 4.48 19.712 4.288C19.5207 4.096 19.2833 4 19 4C18.7167 4 18.4793 4.096 18.288 4.288C18.0967 4.48 18.0007 4.71733 18 5C17.9993 5.28267 18.0953 5.52033 18.288 5.713C18.4807 5.90567 18.718 6.00133 19 6Z" fill="#AFC6FF"/>
</svg>
