<svg width="24" height="24" viewBox="0 0 24 24" fill="none" xmlns="http://www.w3.org/2000/svg">
<path d="M10.35 17L16 11.35L14.55 9.9L10.325 14.125L8.225 12.025L6.8 13.45L10.35 17ZM6.5 20C4.98333 20 3.68767 19.475 2.613 18.425C1.53833 17.375 1.00067 16.0917 1 14.575C1 13.275 1.39167 12.1167 2.175 11.1C2.95833 10.0833 3.98333 9.43333 5.25 9.15C5.66667 7.61667 6.5 6.375 7.75 5.425C9 4.475 10.4167 4 12 4C13.95 4 15.6043 4.67933 16.963 6.038C18.3217 7.39667 19.0007 9.05067 19 11C20.15 11.1333 21.1043 11.6293 21.863 12.488C22.6217 13.3467 23.0007 14.3507 23 15.5C23 16.75 22.5627 17.8127 21.688 18.688C20.8133 19.5633 19.7507 20.0007 18.5 20H6.5ZM6.5 18H18.5C19.2 18 19.7917 17.7583 20.275 17.275C20.7583 16.7917 21 16.2 21 15.5C21 14.8 20.7583 14.2083 20.275 13.725C19.7917 13.2417 19.2 13 18.5 13H17V11C17 9.61667 16.5123 8.43733 15.537 7.462C14.5617 6.48667 13.3827 5.99933 12 6C10.6173 6.00067 9.43833 6.48833 8.463 7.463C7.48767 8.43767 7 9.61667 7 11H6.5C5.53333 11 4.70833 11.3417 4.025 12.025C3.34167 12.7083 3 13.5333 3 14.5C3 15.4667 3.34167 16.2917 4.025 16.975C4.70833 17.6583 5.53333 18 6.5 18Z" fill="#003B8B"/>
</svg>
