<svg width="24" height="24" viewBox="0 0 24 24" fill="none" xmlns="http://www.w3.org/2000/svg">
<path d="M3 20V4L17.3 10H17C16.4167 10 15.8667 10.0667 15.35 10.2C14.8333 10.3333 14.3333 10.5167 13.85 10.75L5 7V10.5L11 12L5 13.5V17L10.4 14.7C10.2667 15.0833 10.1667 15.4627 10.1 15.838C10.0333 16.2133 10 16.6007 10 17V17.05L3 20ZM13.463 20.538C12.4877 19.5627 12 18.3833 12 17C12 15.6167 12.4877 14.4377 13.463 13.463C14.4383 12.4883 15.6173 12.0007 17 12C18.3827 11.9993 19.562 12.487 20.538 13.463C21.514 14.439 22.0013 15.618 22 17C21.9987 18.382 21.511 19.5613 20.537 20.538C19.563 21.5147 18.384 22.002 17 22C15.616 21.998 14.437 21.5113 13.463 20.538ZM18.65 19.35L19.35 18.65L17.5 16.8V14H16.5V17.2L18.65 19.35ZM5 14.7V7V17V14.7Z" fill="#694BB0"/>
</svg>
