<svg width="24" height="24" viewBox="0 0 24 24" fill="none" xmlns="http://www.w3.org/2000/svg">
<path d="M5 21C4.45 21 3.97933 20.8043 3.588 20.413C3.19667 20.0217 3.00067 19.5507 3 19V6.5C3 6.26667 3.03767 6.04567 3.113 5.837C3.18833 5.62833 3.30067 5.43267 3.45 5.25L4.85 3.55C5 3.36667 5.171 3.229 5.363 3.137C5.555 3.045 5.76733 2.99933 6 3H18C18.2333 3 18.446 3.046 18.638 3.138C18.83 3.23 19.0007 3.36733 19.15 3.55L20.55 5.25C20.7 5.43333 20.8127 5.62933 20.888 5.838C20.9633 6.04667 21.0007 6.26733 21 6.5V19C21 19.55 20.8043 20.021 20.413 20.413C20.0217 20.805 19.5507 21.0007 19 21H5ZM5.4 6H18.6L17.75 5H6.25L5.4 6ZM5 19H19V8H5V19ZM14.55 17.05L18.1 13.5L14.55 9.95L13.1 11.4L15.2 13.5L13.1 15.6L14.55 17.05ZM9.5 17.05L10.95 15.6L8.85 13.5L10.95 11.4L9.5 9.95L5.95 13.5L9.5 17.05Z" fill="#694BB0"/>
</svg>
