<svg width="24" height="24" viewBox="0 0 24 24" fill="none" xmlns="http://www.w3.org/2000/svg">
<path d="M10 16C11.6667 16 13.0833 15.4167 14.25 14.25C15.4167 13.0833 16 11.6667 16 10C16 8.33333 15.4167 6.91667 14.25 5.75C13.0833 4.58333 11.6667 4 10 4C8.33333 4 6.91667 4.58333 5.75 5.75C4.58333 6.91667 4 8.33333 4 10C4 11.6667 4.58333 13.0833 5.75 14.25C6.91667 15.4167 8.33333 16 10 16ZM9.288 12.713C9.096 12.521 9 12.2833 9 12V7C9 6.71667 9.096 6.47933 9.288 6.288C9.48 6.09667 9.71733 6.00067 10 6C10.2827 5.99933 10.5203 6.09533 10.713 6.288C10.9057 6.48067 11.0013 6.718 11 7V12C11 12.2833 10.904 12.521 10.712 12.713C10.52 12.905 10.2827 13.0007 10 13C9.71733 12.9993 9.48 12.9033 9.288 12.712M5.788 12.712C5.596 12.5213 5.5 12.284 5.5 12V9C5.5 8.71667 5.596 8.47933 5.788 8.288C5.98 8.09667 6.21733 8.00067 6.5 8C6.78267 7.99933 7.02033 8.09533 7.213 8.288C7.40567 8.48067 7.50133 8.718 7.5 9V12C7.5 12.2833 7.404 12.521 7.212 12.713C7.02 12.905 6.78267 13.0007 6.5 13C6.21733 12.9993 5.98 12.9033 5.788 12.712ZM12.788 12.712C12.596 12.5213 12.5 12.284 12.5 12V10C12.5 9.71667 12.596 9.47933 12.788 9.288C12.98 9.09667 13.2173 9.00067 13.5 9C13.7827 8.99933 14.0203 9.09533 14.213 9.288C14.4057 9.48067 14.5013 9.718 14.5 10V12C14.5 12.2833 14.404 12.521 14.212 12.713C14.02 12.905 13.7827 13.0007 13.5 13C13.2173 12.9993 12.98 12.9033 12.788 12.712ZM10 18C7.76667 18 5.875 17.225 4.325 15.675C2.775 14.125 2 12.2333 2 10C2 7.76667 2.775 5.875 4.325 4.325C5.875 2.775 7.76667 2 10 2C12.2333 2 14.125 2.775 15.675 4.325C17.225 5.875 18 7.76667 18 10C18 10.9333 17.8543 11.8167 17.563 12.65C17.2717 13.4833 16.859 14.2417 16.325 14.925L21.3 19.9C21.4833 20.0833 21.575 20.3167 21.575 20.6C21.575 20.8833 21.4833 21.1167 21.3 21.3C21.1167 21.4833 20.8833 21.575 20.6 21.575C20.3167 21.575 20.0833 21.4833 19.9 21.3L14.925 16.325C14.2417 16.8583 13.4833 17.271 12.65 17.563C11.8167 17.855 10.9333 18.0007 10 18Z" fill="#694BB0"/>
</svg>
