<svg width="24" height="24" viewBox="0 0 24 24" fill="none" xmlns="http://www.w3.org/2000/svg">
<path d="M4 15C3.16667 15 2.45833 14.7083 1.875 14.125C1.29167 13.5417 1 12.8333 1 12C1 11.1667 1.29167 10.4583 1.875 9.875C2.45833 9.29167 3.16667 9 4 9V7C4 6.45 4.196 5.97933 4.588 5.588C4.98 5.19667 5.45067 5.00067 6 5H9C9 4.16667 9.29167 3.45833 9.875 2.875C10.4583 2.29167 11.1667 2 12 2C12.8333 2 13.5417 2.29167 14.125 2.875C14.7083 3.45833 15 4.16667 15 5H18C18.55 5 19.021 5.196 19.413 5.588C19.805 5.98 20.0007 6.45067 20 7V9C20.8333 9 21.5417 9.29167 22.125 9.875C22.7083 10.4583 23 11.1667 23 12C23 12.8333 22.7083 13.5417 22.125 14.125C21.5417 14.7083 20.8333 15 20 15V19C20 19.55 19.8043 20.021 19.413 20.413C19.0217 20.805 18.5507 21.0007 18 21H6C5.45 21 4.97933 20.8043 4.588 20.413C4.19667 20.0217 4.00067 19.5507 4 19V15ZM10.063 12.563C10.3543 12.271 10.5 11.9167 10.5 11.5C10.5 11.0833 10.3543 10.7293 10.063 10.438C9.77167 10.1467 9.41733 10.0007 9 10C8.58267 9.99933 8.22867 10.1453 7.938 10.438C7.64733 10.7307 7.50133 11.0847 7.5 11.5C7.49867 11.9153 7.64467 12.2697 7.938 12.563C8.23133 12.8563 8.58533 13.002 9 13C9.41467 12.998 9.769 12.8523 10.063 12.563ZM16.063 12.563C16.3543 12.271 16.5 11.9167 16.5 11.5C16.5 11.0833 16.3543 10.7293 16.063 10.438C15.7717 10.1467 15.4173 10.0007 15 10C14.5827 9.99933 14.2287 10.1453 13.938 10.438C13.6473 10.7307 13.5013 11.0847 13.5 11.5C13.4987 11.9153 13.6447 12.2697 13.938 12.563C14.2313 12.8563 14.5853 13.002 15 13C15.4147 12.998 15.769 12.8523 16.063 12.563ZM8 17H16V15H8V17ZM6 19H18V7H6V19Z" fill="#003B8B"/>
</svg>
